<svg xmlns="http://www.w3.org/2000/svg" viewBox="0 0 34.875 34.875">
  <defs>
    <style>
      .cls-1 {
        fill: #4da1fe;
      }
    </style>
  </defs>
  <path id="Path_146" data-name="Path 146" class="cls-1" d="M35.438-13.5a16.9,16.9,0,0,0-2.355-8.719,17.62,17.62,0,0,0-6.363-6.363A16.9,16.9,0,0,0,18-30.937a16.9,16.9,0,0,0-8.719,2.355,17.62,17.62,0,0,0-6.363,6.363A16.9,16.9,0,0,0,.563-13.5,16.9,16.9,0,0,0,2.918-4.781,17.62,17.62,0,0,0,9.281,1.582,16.9,16.9,0,0,0,18,3.938a16.9,16.9,0,0,0,8.719-2.355,17.62,17.62,0,0,0,6.363-6.363A16.9,16.9,0,0,0,35.438-13.5ZM15.961-4.289a.936.936,0,0,1-.773.352.936.936,0,0,1-.773-.352L7.1-11.6a.936.936,0,0,1-.352-.773.936.936,0,0,1,.352-.773l1.547-1.617a1.111,1.111,0,0,1,.809-.352,1.111,1.111,0,0,1,.809.352l4.922,4.922L25.734-20.391a1.112,1.112,0,0,1,.809-.352,1.112,1.112,0,0,1,.809.352L28.9-18.773A.936.936,0,0,1,29.25-18a.936.936,0,0,1-.352.773Z" transform="translate(-0.563 30.938)"/>
</svg>
