<?xml version="1.0" encoding="utf-8"?>
<!-- Generator: Adobe Illustrator 22.1.0, SVG Export Plug-In . SVG Version: 6.00 Build 0)  -->
<svg version="1.1" id="katman_1" xmlns="http://www.w3.org/2000/svg" xmlns:xlink="http://www.w3.org/1999/xlink" x="0px" y="0px"
	 viewBox="0 0 210.1 47.3" style="enable-background:new 0 0 210.1 47.3;" xml:space="preserve">
<style type="text/css">
	.st0{fill:#F6F6F6;}
	.st1{opacity:0.9;fill:url(#SVGID_1_);}
	.st2{opacity:0.85;fill:url(#SVGID_2_);}
</style>
<path class="st0" d="M46.7,46.7h8.6c0.9,0,1.7-0.2,2.3-0.6c0.6-0.4,1-1,1.3-1.7l8.9-24.7c0.4-1.1,0.8-2.2,1.2-3.5
	c0.4-1.3,0.8-2.6,1.2-4c0.3,1.4,0.6,2.7,1,4c0.4,1.3,0.8,2.4,1.2,3.5l8.8,24.7c0.2,0.6,0.6,1.1,1.2,1.6c0.6,0.5,1.4,0.7,2.2,0.7h8.7
	L74.8,0.6h-9.7L46.7,46.7z"/>
<path class="st0" d="M132.7,46.6H122v-46h10.7V46.6z"/>
<path class="st0" d="M165.9,0.6v8.2H147v10.7h14.5v7.9H147v11h18.9v8.2h-29.6v-46H165.9z"/>
<path class="st0" d="M176.2,0.6c0.3,0,0.6,0.1,0.9,0.2c0.3,0.1,0.5,0.3,0.7,0.5c0.2,0.2,0.5,0.5,0.8,0.9l21.9,27.6
	c-0.1-0.9-0.1-1.7-0.2-2.6c0-0.8-0.1-1.6-0.1-2.4V0.6h9.4v46H204c-0.8,0-1.5-0.1-2.1-0.4c-0.6-0.3-1.1-0.7-1.6-1.4l-21.7-27.4
	c0.1,0.8,0.1,1.6,0.2,2.4c0,0.8,0.1,1.5,0.1,2.2v24.7h-9.4v-46h5.6C175.5,0.6,175.9,0.6,176.2,0.6z"/>
<path class="st0" d="M108.7,30.6c-0.5-0.8-1-1.4-1.6-1.9c-0.6-0.5-1.3-1-2-1.3c1.5-0.6,2.8-1.3,4-2.2c1.1-0.9,2.1-1.9,2.9-3
	c0.8-1.1,1.4-2.4,1.8-3.7c0.4-1.3,0.6-2.7,0.6-4.2c0-2-0.3-3.8-1-5.4c-0.7-1.7-1.8-3.1-3.2-4.3c-1.5-1.2-3.4-2.2-5.7-2.9
	c-2.3-0.7-5.2-1-8.5-1H78.3l3.2,8h14.3c2.8,0,4.8,0.6,6.1,1.7c1.3,1.1,2,2.7,2,4.7c0,1-0.1,2-0.4,2.8c-0.3,0.9-0.8,1.6-1.4,2.3
	c-0.7,0.7-1.5,1.2-2.5,1.5c-1,0.4-2.3,0.6-3.7,0.6H87l2.9,7.4h4.3c0.8,0,1.5,0.1,1.9,0.4c0.5,0.3,0.8,0.7,1.2,1.3l7.6,13.4
	c0.8,1.3,2.1,2,3.9,2h9.7L108.7,30.6z"/>
<g>
	<linearGradient id="SVGID_1_" gradientUnits="userSpaceOnUse" x1="21.5632" y1="46.5654" x2="21.5632" y2="0.5561">
		<stop  offset="0" style="stop-color:#88170F"/>
		<stop  offset="1" style="stop-color:#E30613"/>
	</linearGradient>
	<path class="st1" d="M26.1,3.6c-0.5-1.8-2.2-3-4.1-3H0.7l19,46h22.7L26.1,3.6z"/>
	<linearGradient id="SVGID_2_" gradientUnits="userSpaceOnUse" x1="40.6149" y1="0.5561" x2="40.6149" y2="46.5654">
		<stop  offset="0" style="stop-color:#E30613"/>
		<stop  offset="1" style="stop-color:#ED6C28"/>
	</linearGradient>
	<path class="st2" d="M40.3,0.6c-1.8,0-3.3,1-4,2.6l0,0l0,0c-0.1,0.1-0.1,0.3-0.2,0.4l-16.4,43h22.7l19-46H40.3z"/>
</g>
</svg>
